<?xml version="1.0" encoding="UTF-8"?>
<svg id="b" data-name="Calque 2" xmlns="http://www.w3.org/2000/svg" width="321.6" height="473.83" viewBox="0 0 321.6 473.83">
  <g id="c" data-name="Calque 2">
    <g>
      <path d="M61.73,111.58l46.66,152.55c3.2,10.46.43,21.84-7.21,29.66l-.69.7c-6.28,6.43-14.07,11.1-22.55,14.09-32.46,11.44-49.89,61.83-43.76,96.9l.11.65c7.39,42.29,47.67,70.58,89.96,63.19,0,0,0,0,0,0,21.43-6.83,61.1-29.08,82.65-35.5,6.98-2.08,21.53-3.76,28.71-5.02,52.91-9.25,88.31-59.63,79.06-112.54l-45.78-261.94L61.73,111.58Z" fill="#bd0613" stroke="#000" stroke-miterlimit="10" stroke-width="6.68"/>
      <path d="M279.5,113.54c-67.7,20.68-138.97,2.26-206.91,21.46-22.24,7.32-49.41,1.15-56.88-23.54-.06-.19-.09-.28-.15-.47-7.2-24.74,3.39-61.19,30.44-69.59,71.74-21.23,146.91-.36,219.02-19.46,20.56-6.42,48.88-3.99,51.63,22.5.02.18.04.28.06.46,3.6,25.9-12.24,59.08-37.21,68.64Z" fill="#fff" stroke="#000" stroke-miterlimit="10" stroke-width="4.67"/>
      <path d="M219.39,431.29s-38.62-115.52,93.47-128.36c0,0,15.82,59.36-24.97,98.61-30.09,31.36-68.5,29.75-68.5,29.75Z" fill="#fff" stroke="#000" stroke-miterlimit="10" stroke-width="4.67"/>
      <path d="M206.58,400.32c6.97-1.8,14.15-2.27,21.3-1.47,1.34.15,2.5-1.26,2.5-2.5,0-1.48-1.15-2.35-2.5-2.5-7.57-.85-15.26-.26-22.63,1.64-3.11.8-1.79,5.63,1.33,4.82h0Z"/>
      <path d="M207.37,351.49c8.25,1.96,16.69,4,23.57,9.23,1.08.82,2.8.17,3.42-.9.75-1.28.18-2.6-.9-3.42-7.19-5.46-16.14-7.68-24.76-9.73-3.13-.74-4.46,4.08-1.33,4.82h0Z"/>
      <path d="M242.27,313.68c2.7,2.44,5.39,4.9,7.8,7.63,1.21,1.37,2.04,2.42,3.03,3.93.48.74.94,1.5,1.35,2.28s.78,1.55,1.03,2.2c.49,1.26,1.67,2.13,3.08,1.75,1.2-.33,2.24-1.81,1.75-3.08-2.94-7.45-8.69-12.97-14.51-18.25-1-.91-2.55-.99-3.54,0-.92.92-1,2.63,0,3.54h0Z"/>
      <path d="M282.67,295.26c3.27,8.24,5.56,16.82,6.84,25.59.2,1.34,1.89,2.07,3.08,1.75,1.43-.39,1.94-1.73,1.75-3.08-1.28-8.77-3.57-17.35-6.84-25.59-.5-1.25-1.67-2.13-3.08-1.75-1.19.33-2.25,1.81-1.75,3.08h0Z"/>
    </g>
  </g>
</svg>