<?xml version="1.0" encoding="UTF-8"?>
<svg id="Calque_1" xmlns="http://www.w3.org/2000/svg" version="1.1" xmlns:xlink="http://www.w3.org/1999/xlink" viewBox="0 0 300 24">
  <!-- Generator: Adobe Illustrator 29.8.3, SVG Export Plug-In . SVG Version: 2.1.1 Build 3)  -->
  <defs>
    <style>
      .st0 {
        isolation: isolate;
        opacity: .8;
      }

      .st1 {
        filter: url(#glow1);
      }

      .st2, .st3 {
        fill: none;
        stroke: #555;
      }

      .st4 {
        filter: url(#glow2);
      }

      .st3 {
        stroke-width: 1px;
      }

      .st5 {
        filter: url(#glow);
      }

      .st6 {
        filter: url(#glow3);
      }

      .st7 {
        fill: #999;
      }

      .st8 {
        filter: url(#glow4);
      }
    </style>
    <filter id="glow" x="-50%" y="-50%" width="200%" height="200%">
      <feGaussianBlur result="blur" stdDeviation="3"/>
      <feComposite in="SourceGraphic" in2="blur"/>
    </filter>
    <filter id="glow1" data-name="glow" x="-50%" y="-50%" width="200%" height="200%">
      <feGaussianBlur result="blur" stdDeviation="3"/>
      <feComposite in="SourceGraphic" in2="blur"/>
    </filter>
    <filter id="glow2" data-name="glow" x="-50%" y="-50%" width="200%" height="200%">
      <feGaussianBlur result="blur" stdDeviation="3"/>
      <feComposite in="SourceGraphic" in2="blur"/>
    </filter>
    <filter id="glow3" data-name="glow" x="-50%" y="-50%" width="200%" height="200%">
      <feGaussianBlur result="blur" stdDeviation="3"/>
      <feComposite in="SourceGraphic" in2="blur"/>
    </filter>
    <filter id="glow4" data-name="glow" x="-50%" y="-50%" width="200%" height="200%">
      <feGaussianBlur result="blur" stdDeviation="3"/>
      <feComposite in="SourceGraphic" in2="blur"/>
    </filter>
  </defs>
  <path class="st3" d="M6,3C3.9,3.2,1.9,3.4,0,3.6"/>
  <g>
    <path class="st2" d="M8,5c21.7,3.1,34.1,4,56,4"/>
    <g class="st5">
      <path class="st0" d="M8.9,11c-1.3,0-2.1-1-2.9-2.8-.7-1.7-1.1-3.8.5-4.8.7-.4,1-.5,2.4-.5s1.6,0,2.4.5c1.6,1,1.3,3.1.5,4.8-.8,1.8-1.6,2.8-2.9,2.8Z"/>
    </g>
    <path class="st7" d="M8.4,10c-1.3,0-2.1-1-2.9-2.8-.7-1.7-1.1-3.8.5-4.8.7-.4,1-.5,2.4-.5s1.6,0,2.4.5c1.6,1,1.3,3.1.5,4.8-.8,1.8-1.6,2.8-2.9,2.8Z"/>
  </g>
  <g>
    <path class="st2" d="M121,3s-34.1,4-56,4"/>
    <g class="st1">
      <path class="st0" d="M62.4,13.7c-1.1-.7-1.3-2-1-3.9.2-1.8,1.1-3.8,3-3.7.8,0,1.2.1,2.3.8,1.1.7,1.4.9,1.7,1.7.8,1.7-.6,3.3-2.1,4.3-1.6,1.1-2.8,1.5-3.9.8Z"/>
    </g>
    <path class="st7" d="M62.9,12.8c-1.1-.7-1.3-2-1-3.9.2-1.8,1.1-3.8,3-3.7.8,0,1.2.1,2.3.8,1.1.7,1.4.9,1.7,1.7.8,1.7-.6,3.3-2.1,4.3-1.6,1.1-2.8,1.5-3.9.8Z"/>
  </g>
  <g>
    <path class="st2" d="M124,4s28.1,2.2,56,3.3"/>
    <g class="st4">
      <path class="st0" d="M127.5,10.2c-1,.8-2.3.6-4-.2-1.6-.8-3.2-2.2-2.6-4,.3-.8.5-1.1,1.5-1.9,1-.8,1.3-1,2.1-1.1,1.8-.3,3,1.5,3.5,3.3.5,1.8.6,3.1-.4,4Z"/>
    </g>
    <path class="st7" d="M126.8,9.4c-1,.8-2.3.6-4-.2-1.6-.8-3.2-2.2-2.6-4,.3-.8.5-1.1,1.5-1.9,1-.8,1.3-1,2.1-1.1,1.8-.3,3,1.5,3.5,3.3.5,1.8.6,3.1-.4,4h0Z"/>
  </g>
  <g>
    <path class="st2" d="M182,5.4c9.8.4,19.5.7,28,.7s19.5,0,28-.3"/>
    <g class="st6">
      <path class="st0" d="M187.5,3.5c.7,1.1.2,2.3-.9,3.9-1,1.5-2.7,2.9-4.3,2-.7-.4-1-.6-1.6-1.8-.7-1.1-.8-1.4-.8-2.3,0-1.9,2-2.7,3.8-2.9,1.9-.2,3.2,0,3.8,1.1Z"/>
    </g>
    <path class="st7" d="M186.7,4c.7,1.1.2,2.3-.9,3.9-1,1.5-2.7,2.9-4.3,2-.7-.4-1-.6-1.6-1.8-.7-1.1-.8-1.4-.8-2.3,0-1.9,2-2.7,3.8-2.9,1.9-.2,3.2,0,3.8,1.1Z"/>
  </g>
  <g>
    <path class="st3" d="M300,3c-22.8,2.1-38.8,3.2-57.4,3.7"/>
    <g class="st8">
      <path class="st0" d="M238.6,3.5c1-.8,2.3-.6,4.1.2,1.7.8,3.3,2.2,2.7,4-.3.8-.5,1.1-1.5,1.9-1,.8-1.3,1-2.2,1.1-1.9.3-3-1.5-3.6-3.3-.5-1.8-.6-3.1.5-4Z"/>
    </g>
    <path class="st7" d="M239.2,4.3c1-.8,2.3-.6,4.1.2,1.7.8,3.3,2.2,2.7,4-.3.8-.5,1.1-1.5,1.9-1,.8-1.3,1-2.2,1.1-1.9.3-3-1.5-3.6-3.3-.5-1.8-.6-3.1.5-4Z"/>
  </g>
</svg>