<?xml version="1.0" encoding="UTF-8"?>
<svg id="b" xmlns="http://www.w3.org/2000/svg" version="1.1" viewBox="0 0 518.6 115.6">
  <!-- Generator: Adobe Illustrator 29.8.3, SVG Export Plug-In . SVG Version: 2.1.1 Build 3)  -->
  <defs>
    <style>
      .st0 {
        fill: #d1e5fd;
      }

      .st1 {
        fill: #e2f8fe;
      }

      .st2 {
        fill: #a5cafb;
      }
    </style>
  </defs>
  <g id="c">
    <g>
      <path class="st1" d="M466.2,33.1c5.7,0,14.8-2.2,20.5-2.4.1,2.3,2.7,2.5,3.6,4.6,1.3,3,1.7,8.9-.6,11.6-.2.2-5.6,3.8-5.9,3.9-5.2,2.2-15.4,1.4-21.4,2-24.7,2.3-44.7,12.7-71.9,5.3-15.4-4.2-33.5-21.6-44.9-22.7-17.1-1.6-19.3,9.8-30.7,11.6-13,2-20.7-4.7-32.2.4-4.8,2.1-7.3,5.8-13,7.3-8.3,2.1-15-.7-22.7.4-4.9.8-6.8,4.5-10.9,5.9-11.9,4.2-22.4-1.6-33.4-3.8-16-3.2-36.9,5.4-54,6.6-19.5,1.4-29.4-2.9-42.3-13.3-7.6-6.1-7-10.3-21.1-7.9-16.4,2.9-30.3,17-48.2,11.5-2-.6-2.6-2.3-5.6-2.2-4.2.1-9.8,5.6-12.5,5.4s-8.5-10.3-9.7-12.5c3.2-8.4,15.5-7.2,24.5-10,7.4-2.3,17.2-8.2,24-11.9,15.4-8.4,22.4-15.8,43.9-8.5,7.1,2.4,19.2,7.5,24.6,10.9,12.5,8,13.2,12.5,31.7,9.3,18.2-3.2,39.4-9,58.3-4.4,11.8,2.9,14.4,9.3,29,4.6,13.2-4.3,25.6-14.2,38-20.2,39.9-19.2,87.2-20.4,124.4,1.2,2.9,1.7,9.4,6.9,11.5,7.6,11.5,3.6,35,9.5,46.9,9.7h0Z"/>
      <path class="st2" d="M499.9,32.5c1.1.4,2.1.3,3.5,1.2,4.8,3,11.5,19.4,8,40-.5,2.7-.8,3,.1,7.1.3,1.5.6,3.9-1.6,4.8-3.7,1.6-6.1-4.1-6.6-5.5-2.2-6.2-4.2-7.2-7-13.2-2.1-4.5-4.5-4.2-9-1.5-7.2,4.3-10.4,15.1-22.1,12.7-5.5-1.1-6.2-4.5-13.1-3.4-10,1.6-16.4,17.6-18.9,18.2-3.9.9-5.3-9.2-8.1-7.7-1,.6-5.5,15.7-7,16.6-1.1.6-2-.8-2.5-1.4-.8-1-6.3-13-7.6-12.3l-10.5,27.3c-1.9.3-2.9-3.6-3.3-4.6-1.5-4-5.6-28.4-7.3-29.2-3-1.5-6.2,8.1-10,6.4-.7-.3-5.4-9.7-6.9-11.6-7.7-9.4-19.5-13.7-33.9-10.2-9.6,2.3-14.8,9.2-26.1,6.2s-14.6-9.5-28.3-4.3c-8.4,3.2-11.9,10.2-22.6,9.3-3.8-.3-9-2.6-12.5-2.3-2.8.2-6.4,3.7-9.2,4.9-11.1,4.6-13.8-1.4-22.3-4.6-12.1-4.5-25.3-3-34.3,4.8-2,1.8-8.5,10.4-9.3,10.7-1.1.4-2.2.5-3.3.2-2-.5-3.8-4-5.6-2.9-3.1,1.8-6.1,14-8.8,17.6-1.8,2.4-2.7,1.2-4.2-.6-2.7-3.1-8.3-15.6-11.5-16.7-4.1-1.4-6,4.8-11.6,3.6-4.2-.9-13-7.7-17.2-10.1-10.3-5.8-21.8-10.8-35.2-9.8-13.3,1-22.4,10-39.1,4.2-3.6-1.3-6-3.7-9.1-5.4-2.3.4-11.8,14-14.2,16.4-3.3,3.3-4.6-2.5-5.1-4.2-2.1-7.5,2-18.7,1.8-26.4,4.3,3.4,3.9,9.3,9,12.4,1.7.3,7-5.9,10.2-6.4,2.3-.3,10.9,2.9,14.8,3.3,21.5,2.1,36-18.2,56.9-5.5,8.5,5.1,15.5,12.1,24.1,17.2,5.2,1.9,10.6-4.1,15-3.2,3.7.8,9.1,11.1,12.6,11.2,2.9,0,7.2-5.9,9.3-7.7,12.6-10.6,25.7-16,44.9-11.7,12,2.7,19.5,9.7,32.7,3.9,5.6-2.5,9.3-8.3,16.4-7.6,5,.5,8.8,1.9,14.7,1,5.2-.8,10.2-6,15-7.5,10.6-3.3,19.7,2,29.9,1.4,12.1-.6,16.7-10.7,32.2-9.2,10,.9,27.1,16.4,35.3,21.7,6.2,4,11.5,7.7,20.2,4.7,3.7-1.3,7.2-6.3,10.5-6.3,4,0,11.4,7.8,17.1,7.7,5.8,0,6.6-10.1,16.4-11.2,10.4-1.1,18.2,4.2,26.2,2.8,4-.7,9.8-6.5,13.9-8.4,9-4.3,20-2.2,19.3-13.1-.3-4.5-2.4-10.1-5.4-13.9h0Z"/>
      <path class="st0" d="M499.9,32.5c3,3.9,5.1,9.4,5.4,13.9.7,11-10.3,8.8-19.3,13.1-4,1.9-9.9,7.7-13.9,8.4-8,1.4-15.8-3.9-26.2-2.8-9.8,1-10.6,11.1-16.4,11.2-5.7,0-13.1-7.7-17.1-7.7-3.3,0-6.8,5-10.5,6.3-8.7,3-14-.7-20.2-4.7-8.2-5.3-25.4-20.7-35.3-21.7-15.5-1.5-20.2,8.6-32.2,9.2-10.2.5-19.3-4.8-29.9-1.4-4.8,1.5-9.8,6.7-15,7.5-5.8.9-9.6-.5-14.7-1-7.1-.7-10.8,5.1-16.4,7.6-13.3,5.8-20.7-1.2-32.7-3.9-19.2-4.3-32.2,1.1-44.9,11.7-2.2,1.8-6.4,7.8-9.3,7.7-3.5,0-8.9-10.4-12.6-11.2-4.4-.9-9.7,5-15,3.2-8.6-5.1-15.6-12.1-24.1-17.2-21-12.7-35.4,7.6-56.9,5.5-3.9-.4-12.5-3.6-14.8-3.3-3.2.5-8.5,6.7-10.2,6.4-5.1-3.1-4.7-9.1-9-12.4-.1-3.8-.6-8.4.8-11.9,1.2,2.2,7,12.3,9.7,12.5s8.3-5.2,12.5-5.4c3,0,3.5,1.6,5.6,2.2,17.9,5.5,31.8-8.7,48.2-11.5,14.1-2.5,13.5,1.7,21.1,7.9,12.9,10.4,22.8,14.6,42.3,13.3,17-1.2,38-9.8,54-6.6,11,2.2,21.5,8,33.4,3.8,4.1-1.4,6-5.2,10.9-5.9,7.7-1.2,14.4,1.7,22.7-.4,5.7-1.5,8.1-5.2,13-7.3,11.5-5.1,19.1,1.7,32.2-.4,11.4-1.8,13.6-13.2,30.7-11.6,11.4,1.1,29.5,18.5,44.9,22.7,27.2,7.4,47.2-3,71.9-5.3,6-.6,16.2.3,21.4-2,.3-.1,5.7-3.7,5.9-3.9,2.3-2.7,1.9-8.6.6-11.6-.9-2.1-3.5-2.3-3.6-4.6,3.9-.1,8.3-.3,11.9.7.8.2,1.1,1,1.3,1h0Z"/>
    </g>
  </g>
</svg>