<?xml version="1.0" encoding="UTF-8"?>
<svg id="b" data-name="Calque 2" xmlns="http://www.w3.org/2000/svg" width="148.63" height="59.27" viewBox="0 0 148.63 59.27">
  <g id="c" data-name="Calque 1">
    <g>
      <path d="M4.2,54.45c-1.98-.13-6.92-.98-2.27-2.53,2.07-.69,4.28-.61,6.36-1.56,1.34-.61,3.1-2.48,4.19-2.77,1.37-.36,3.06.09,4.43-.13,2.5-.39,4.57-4.42,6.71-5.77,1.3-1.66,1.75-3.81,2.83-5.57,2.92-4.77,11.67-6.23,16.19-8.77,1.81-1.01,3.03-2.68,4.71-3.69,2.31-1.38,5.5-2.13,8.01-3.27,5.69-2.59,8.59-4.94,15.19-6.17,9.14-1.71,14.91,2.1,23.16,4.94,2.47.85,4.39.79,6.72,2.4,4.22,2.91,7.23,6.33,12.05,9.07,3.05,1.73,7.69,2.94,10.03,4.85.44.36.79,1.07,1.27,1.43,2.52,1.88,6.17,1.98,8.57,3.86.99.78,1.55,1.97,2.68,2.6,4.2,2.36,9.39,3.19,12.9,7.26.87,1.01,1.1,1.76-.45,1.9-3.06.27-6.53.04-9.61.23-1.27.08-2.67.4-3.95.49.13.45,1.46.72,1.63,1.01.13.22.16.76-.09.94-.63.46-3.28.1-4.28.23-1.18.16-2.74.96-4.02,1.26-6.72,1.56-13.44.57-20.25.87-6.38.28-12.78,1.52-19.18,1.7-5.71.16-11.75-.89-17.52-.98-5.47-.09-10.99.79-16.33.49-3.63-.2-7.17-1.24-10.8-1.44-4.51-.24-13.63.82-17.4-.84-.59-.26-.59-.66-.78-.77-2.49-1.54-16.93-1.02-20.7-1.26ZM68.22,15.48c-5.21,1.3-8.18,3.55-12.84,5.64-2.84,1.27-6.17,1.95-8.68,3.8-.94.69-1.91,1.93-2.92,2.6-1.28.85-2.8,1.28-4.16,1.96-1.22.02-6.93,2.42-7.68,3.36-.63.14-2.51,1.06-2.81,1.51-.08.12-.98,2.34-.2,2.09,1.79-.4,2.87-.66,4.5-1.45,2.27-1.09,5.2-1.61,7.47-2.9.84-.48,5.46-4.27,6.15-3.57.06.42-.03.75-.19,1.13-.49,1.2-3.84,4.25-4.97,5.11-.54.41-1.56.45-1.92,1.2-.72,1.49,1.07.91,1.32,1.2.52.63-.54.76-.85.94-1.19.7-4.82,3.21-5.27,4.35-.12.29.09.6-.01.94-.19.66-2.02,1.81-1.08,3.03.6.43,2.22-.89,2.77-1.34,1.09-.89,2.98-3.4,4.07-3.85.7-.3,1.22-.12,1.81-.35.82-.32,2.05-1.96,3.07-2.45,1.68-.82,4-.88,5.74-1.7,2.49-1.15,7.33-4.9,7.04-7.96-1.15-.33-1.21.24-1.62.47-2.5,1.41-3.24,3.7-6.54,4.24-.72.12-1.42-.15-2.16.09l2.26-2.89.36-1.32c1.59-1.03,2.58-4.16,4.11-5.01.86-.48,1.59-.25,2.39-.49,4.83-1.44,7.41-7.05,13.04-6.34.63.08,3.4,1.03,3.81,1.4,1.56,1.42-1.1,1.52-1.92,1.88-.68.3-2.78,1.35-3.3,1.74-1.25.92-1.77,2.56-2.76,3.72l1.2-.12c-1.38.81-2.8,1.74-3.6,3.12-.1.18-.16.31-.24.48-.2.08-.3,0-.59.24-.98.83-3.37,4.88-4.35,6.22-.39.54-1.36,1.16-1.54,1.7-.03.07.03.17,0,.24-.47-.09-.56.37-.72.48-2.69,1.88-4.31,1.73-7.16,2.56-2.55.75-4.47,3.1-6.28,4.88-1.27,1.25-2.39,2.95-4,3.8-1.31.7-2.85.58-4.16,1.24-.45.05-.63.16-.96.24-2.28.53-3.92,2.25-5.52,3.84,3.32.73,6.36-2.22,9.3-2.59.6-.07,1.02.18,1.38.15.52-.05,3.34-.32,3.46-.46.14-.18-.21-1.44.49-2.2.29-.32.73-.31.96-.55.66-.69,1.5-2.32,2.28-2.76.54-.31,1.1-.21,1.66-.5.76-.39,2.19-2.01,3.01-2.27,1.48-.46,2.93.3,4.19.13,4.29-.58,5.29-6.22,8.46-7.87,1.2-.62,3.66-1.25,5-1,1.53.28-.95,2.16.24,1.92.75-.15,2.76-1.22,3.72-1.57.86-.31,1.43.14.71-1.44l-5.52-2.04c-.08-.09.77-2,.85-2.14.22-.38,3.76-3.24,4.25-3.42,1.47-.56,2.05.31,3.06.19,2.95-.36,3.51-3.19,7.05-2.76,2.58.32,5.46,1.15,8.18,1.2,1.19.02,2.74-.82,4.05-.73.78.05,3.56,1.41,4.09,1.93.42.41,2.47,2.93,2.06,3.35-2.18.26-4.05-.95-6.25-.36-.33.09-.55.03-.44.44.34,1.31,3.1,1.51,3.83,2.42.34.42.19,1.1.53,1.51.38.47,2.32,1.61,3.17,2.46.62.62,1.37.55,1.08,1.93-2.64-.07-6.43-2.77-8.94-1.14-.29.19-.51.22-.42.66l3,.96-.84.24c-4.68-1.89-9.35-3.25-14.34-1.74-2.73.83-4.35,1.39-7.26,1.98-3.37.68-6.37,2.03-9.01,4.31-.94.81-2.68,3.2-3.35,3.61s-1.88.49-2.7.9c-.87.44-1.67,1.5-2.71,1.73.52,1.98,2.39.8,3.72.72.79-.05,5.06-.09,5.4.24-1.97,1.69-5.08.46-7.44,1.2-.16,0-.32,0-.48,0-.58,0-1.26.05-1.68.48-.16,0-.32-.01-.48,0-.56.05-1.07.53-1.68.48l.48.47c-.7-.06-3.56,1.57-3.09,2.37.02.04.67.28.88.43,1.12.82.61.3,1.81.56.17.04.14.42.33.47,4.73,1.15,6.1.19,10.23-1.24,2.44-.85,4.04-1.14,6.47-1.69,1-.23,1.79-.8,2.94-.9,2.25-.21,3.23.54,5.1.9,4.89.94,8.59,1.82,13.51.43.26-.07,1.58-1.05,1.68-1.27.2-.44-.05-.76.05-.96.31-.65,2.95-2.14,3.73-2.39,4.83-1.56,6.69,2.04,10.14,3.65,3.21,1.5,6.82,1.17,10.14,1.86.76.16,2.28.47,1.62,1.38.66.06,5.09-.29,5.27-.49.06-.07.05-.72-.05-.9-.08-.14-2.34-1.62-2.66-1.77-1.62-.79-4.18-1.74-5.92-2.36-.13-.04-.26-.18-.48-.24-.09-.03-.24-.19-.48-.24-.88-.2-2-.4-2.88-.24-2.09.26-3.26-1.66-4.97-2.35-1.28-.52-2.56-.42-3.8-.76-.33-.09-.75-.03-.83-.49,2.02.29,3.53-.07,5.44.91.72.37,2,1.64,2.59,1.73.7.1.04-1.11,1.01-1.4,2.53-.76,5.66,1.45,8.22,2s5.42.42,7.71.93c.31.07,2.35.93,2.5,1.1.47.53.77,2.29.86,2.38.13.14,2.61-.07,3.11.01-.96-.93-2.29-1.26-3.27-2.24-.42-.42-.71-1.15-1.17-1.59-.65-.63-1.7-1.03-2.28-1.8.37-.43,1.07.32,1.32.3.26-.02.54-.63.84-.78.48-.23,4.53.23,5.37.38,1.44.25,3.07.95,4.56,1.15.44.3-.05,1.49-.1,1.95h6.6c.26,0,.96-.38,1.32-.36-1.95-2.12-4.25-3.87-6.96-4.92-.26-.1-.38-.33-.96-.48-1.57-1.23-3.68-1.41-5.36-2.44-1.38-.84-2.18-2.46-3.7-3.26-2.05-1.08-4.83-1.34-6.86-2.74-1.2-.82-2.02-2.33-3.52-2.84-.81-.52-2.62-1.04-3.6-1.2l-5.84-3.16c-3.34-2-6.24-4.52-9.28-6.92-3.65-2.88-3.75-2.38-7.92-3.84-2.99-1.05-5.86-2.15-8.88-3.12-1.93-.62-4.25-1.72-6.24-1.92-3.23-1.14-7.25-.17-10.52.64ZM20.02,51.32c.26-.14.23-.4.15-.59-.28-.68-2.67-.93-2.83-1.13-.49-.6.52-1.47-2.09-1.16-.85.1-5.09,2.27-4.19,3.12,2.33-.04,6.95.88,8.96-.24ZM43.45,52.28h.72s0-.48,0-.48h-.72s0,.48,0,.48Z" fill="#9dbdd8"/>
      <path d="M111.05,30.64l5.84,3.16c-1.43-.23-4.55-.48-6.11-.49-3.95-.04.79,2.13,1.84,2.68.18.1.21.36.38.44.58.27,3.79,1.56,4.13,1.22.35-.54-1.04-1.79-.12-1.68l6.12,2.4c.1-.48-.11-.64-.35-.97-.28-.38-2.15-2.3-2.29-2.39,1.5.51,2.32,2.02,3.52,2.84,2.03,1.39,4.81,1.65,6.86,2.74,1.52.8,2.32,2.42,3.7,3.26,1.68,1.03,3.79,1.21,5.36,2.44-.82-.21-5.32-.88-5.76-.48-.08.46.29.72.65.91.74.38,3.46,1.42,4.25,1.51.35.04,2.44.07,2.53-.01.53-.5-.94-.95-.72-1.44,2.71,1.05,5.01,2.8,6.96,4.92-.36-.02-1.06.36-1.32.36h-6.6c.05-.46.54-1.65.1-1.95-1.49-.2-3.13-.9-4.56-1.15-.85-.15-4.89-.61-5.37-.38-.3.14-.58.75-.84.78-.25.02-.95-.73-1.32-.3.58.77,1.63,1.18,2.28,1.8.46.44.75,1.17,1.17,1.59.99.99,2.31,1.31,3.27,2.24-.49-.08-2.97.12-3.11-.01-.09-.09-.39-1.86-.86-2.38-.15-.17-2.19-1.03-2.5-1.1-2.29-.51-5.25-.41-7.71-.93s-5.7-2.76-8.22-2c-.97.29-.31,1.5-1.01,1.4-.6-.08-1.87-1.36-2.59-1.73-1.91-.99-3.43-.63-5.44-.91.08.46.5.4.83.49,1.24.34,2.52.24,3.8.76,1.71.69,2.88,2.61,4.97,2.35-.04,0-.23.36-.65.42-.69.1-3.16.17-3.43.54-.5.68,2.09.95,2.52.96.51,0,1.04-.26,1.67-.25,1.34.02,2.64.13,3.97.25l-.24-1.2c1.74.62,4.3,1.57,5.92,2.36.32.15,2.58,1.63,2.66,1.77.1.17.11.83.05.9-.18.2-4.62.55-5.27.49.66-.91-.85-1.22-1.62-1.38-3.32-.7-6.93-.36-10.14-1.86-3.44-1.61-5.31-5.21-10.14-3.65-.78.25-3.43,1.75-3.73,2.39-.1.2.15.52-.05.96-.1.22-1.42,1.19-1.68,1.27-4.92,1.39-8.62.51-13.51-.43-1.86-.36-2.85-1.1-5.1-.9-1.15.1-1.94.67-2.94.9-2.43.55-4.03.84-6.47,1.69-4.13,1.44-5.49,2.39-10.23,1.24-.19-.05-.15-.43-.33-.47-1.21-.26-.7.25-1.81-.56-.21-.15-.85-.39-.88-.43-.48-.8,2.39-2.43,3.09-2.37l-.48-.47c.61.05,1.12-.43,1.68-.48l-1.2,1.44c1.37.01,2.57-.65,3.95-.73,1.82-.11,3,.75,4.75.43.88-.16,1.81-1.01.74-1.34-.89-.28-3.83,0-5.02-.03-.31,0-.55-.25-.58-.25,2.36-.74,5.47.49,7.44-1.2-.33-.33-4.61-.29-5.4-.24-1.33.08-3.2,1.26-3.72-.72,1.04-.23,1.84-1.3,2.71-1.73.81-.41,2.01-.47,2.7-.9s2.41-2.8,3.35-3.61c2.63-2.28,5.63-3.63,9.01-4.31.13.63-.31.49-.66.65-1.29.6-2.36,1.12-3.43,2.11-.67.62-1.61,1.3-1.44,2.28.39.39,7.14-1.74,8.31-1.89.29-.04,1.04-.18.81.33-.41.93-1.87,1.39-2.41,2.15-.28.4-.31,1.04-.53,1.27-.35.37-1.94.97-2.42,1.29-.31.21-1.93,1.34-1.6,1.64,3.49-.54,6.99-1.22,10.56-1.2-.04-.28.09-1.09-.01-1.19-.12-.12-2.83-.65-3.23-.49-.21.03-.14-.45-.12-.48.13-.16,3.26-1.82,3.67-1.98,1.07-.41,2.35-.58,3.52-1.04,1.49-.59,3.17-2.07,4.52-2.21.78-.08,2.66.11,3.47.24,2.55.41,4.97,1.93,7.62,1.38.84-.77-4.17-2.45-4.5-2.59s-.51-.51-.54-.53l.84-.24-3-.96c-.09-.44.12-.47.42-.66,2.51-1.63,6.3,1.07,8.94,1.14.29-1.37-.47-1.31-1.08-1.93-.85-.85-2.79-1.98-3.17-2.46-.34-.42-.19-1.1-.53-1.51-.73-.9-3.49-1.11-3.83-2.42-.11-.41.11-.35.44-.44,2.2-.6,4.07.61,6.25.36.4-.42-1.64-2.93-2.06-3.35-.53-.52-3.31-1.87-4.09-1.93-1.32-.09-2.86.76-4.05.73-2.72-.05-5.6-.88-8.18-1.2-3.55-.44-4.1,2.4-7.05,2.76-1.01.12-1.59-.75-3.06-.19-.49.19-4.03,3.05-4.25,3.42-.08.14-.93,2.06-.85,2.14l5.52,2.04c.72,1.58.15,1.13-.71,1.44-.96.35-2.97,1.41-3.72,1.57-1.2.24,1.28-1.64-.24-1.92-1.33-.25-3.8.38-5,1-3.17,1.64-4.17,7.29-8.46,7.87-1.26.17-2.71-.58-4.19-.13-.83.26-2.25,1.87-3.01,2.27-.56.29-1.12.19-1.66.5-.78.44-1.63,2.07-2.28,2.76-.22.24-.67.23-.96.55-.7.77-.35,2.03-.49,2.2-.12.14-2.93.41-3.46.46-.36.03-.78-.22-1.38-.15-2.94.37-5.98,3.32-9.3,2.59,1.6-1.59,3.24-3.31,5.52-3.84.18.74-1.85.93-1.2,1.68.11.13,2.6-.78,3.06-.9.42-.11,1.63.08,1.74-.42.22-1.03-1.87-.41-2.29-.39-.18,0-.32-.21-.35-.21,1.31-.65,2.85-.54,4.16-1.24,1.61-.85,2.72-2.55,4-3.8.49-.18.46.47.63.49.99.11,1.11-.94,1.8-1.53,3.17-2.71,6.84-2.15,10.13-4.04,1.47-.84,2.66-2.11,3.67-3.16.41-.42.81-1.28.45-1.84-.98.47-1.24,1.98-2.52,1.92.19-.53,1.15-1.16,1.54-1.7.98-1.34,3.37-5.4,4.35-6.22.29-.24.39-.16.59-.24.08-.17.14-.3.24-.48l.24.12c.12.58-.23.26-.48.36-.37.73-.97,2.04-1.14,2.82-.07.33-.28.89.3.78,2.19-2.14,3.29-4.14,6-5.76,3.39-2.03,5.8-2.08,9.28-3.2,1.14-.36,2.94-1.7,3.94-1.83.44-.06,3.06.16,3.57.25.64.11,1.39.89,1.95.94.72.06,2.22-.45,3.1-.48,1.53-.06,5.39-.23,6.68.06s4.49,3.04,5.09,3.08c1.06.06-.75-2.32-.6-2.64,3.04,2.4,5.94,4.92,9.28,6.92ZM98.46,39.38c.9.37,1.88.88,2.83.9l-1.92-1.07-1.43-.36c-.12.68.17.39.53.54ZM113.71,42.01c-1.09.2-2.13,1.27-3.29,1.39,1.14,2.85,4.08.75,5.85.74,1.96,0,4.98,1.06,7,1.4,2.64.45-.12-1.81-.73-2.63l-2.04-1.2c2.21.03,4.59,2.71,6.61,3.11.24.05.65.15.58-.23-1.79-.59-3.3-2-5.03-2.77-2.77-1.23-6.61-1.46-9.53-.63-.4.12-.67-.18-.55.51,1.9-.4,4.08-.83,6-.24-1.63.31-3.34.26-4.87.53Z" fill="#d4e5f0"/>
      <g>
        <path d="M94.87,11.91s.02.03-.01.04v-.04Z" fill="#006533"/>
        <g>
          <path d="M69.51,18.28c-.1-.15-.14-.46-.11-.63.06-.29.28-.49.35-.8.41-1.72.16-3.63-.35-5.31-.12-.4-.37-.89-.45-1.27-.17-.8,1.19-.06,1.52.12s.61.39.92.59c.1-.97.78-1.9,1.37-2.73C76.57,2.89,82.53-.91,90.28.22c4.22.61,9.47,3.25,10.95,6.8,1.04,2.51.36,4.95.75,7.48.34,2.22,1.06,3.75.07,6.04-.63,1.47-3.31,3.55-5.02,1.95-1-.93-.06-2.11-.21-3.2-.06-.44-.25-.52-.62-.8-.39-.3-.81-.58-1.23-.85-.23-.06-.65.38-.77.53-.68.83-1.65,3.37-1.61,4.37.02.51.29,1.06-.37,1.43-.58.33-.97-.13-1.2-.53-.48-.84-.77-1.73-1.36-2.55-2.98-4.12-11.02-5.63-16.14-3.84-.9.32-1.49.77-2.29,1.17-.5.26-1.31.64-1.72.05ZM97.51,18.86c-.2-.03-.41-.12-.62-.15l.45.5c.2.29.4.58.42.92,0,.08.02.31-.13.24-.05-.02-.19-.49-.24-.59l-.25-.34c.17.95-.74,2.05.15,2.86,1.09,1,2.78.14,3.67-.62.94-.8,1.38-2.9,1.29-4.02l-.2-.98-.18.52c-.06.17-.41.49-.62.57.32-.51.7-1.01.65-1.62-.02-.3-.26-.66-.31-.96-.12-.04.04.36-.09.21-.36-1.24-.12-2.56-.1-3.82.09-4.5-1.17-6.95-5.89-9.29-7.84-3.88-15.94-1.62-20.96,4.39-.07.08-.14.16-.2.25-.02.03-.11.09-.02.1.02-.05.08-.08.13-.11,1.02-.49,3.07-1.25,4.22-1.4.09-.01.27-.04.36,0-.15,0-.21.07-.33.11-2.33.76-4.52,1.32-5.9,3.24-.34.48-1.28,1.93-1.03,2.45.1.21.6.51.68.77.1.05.11-.1.12-.15.27-1,.62-2.6,1.23-3.47.56-.8.71-.27,1.17.13.79.69,3.05,1.98,4.08,2.45.09.04.34.16.42.16.12,0,.57-.29.69-.37,1.04-.7,2-1.51,3.07-2.18.37-.23.82-.64,1.21-.24.16.16.44.74.55.96.5,1.02.82,2.14,1.33,3.16.09.18.27.62.48.69.22.08.81-.14,1.04-.21,1.4-.45,2.87-1.16,4.26-1.56.56-.16.85-.05.96.45.25,1.09-.04,3.06-.23,4.19,0,.05-.07.23.02.23.39-.21.82-.37,1.28-.43.07-.18.15-.36.2-.55.16-.61.43-2.18.33-2.75-.04-.21-.13-.46-.19-.67-.23-.75-.54-1.49-1.03-2.16.03-.13.17.06.2.09.53.62.88,1.29,1.21,2,.23-1.18.32-2.4.16-3.59-.04-.3-.13-.59-.17-.89,0-.03-.05-.12.02-.13.61,1.09.68,2.33.61,3.51l.15-.3c.26-.67.13-1.49.33-2.15.01-.04.01-.11.08-.08.14.53.13,1.06.04,1.6-.08.49-.19.98-.4,1.44.92-.07,1.76-.49,2.38-1.05l.76-.79c-.47.88-1.39,1.59-2.3,2.15-.05.03-.16.04-.25.09-.46.28-.9.59-1.02,1.07-.15.62-.14,1.33-.31,1.96,0,.07.46.25.57.28.8.26,1.65.3,2.47.1.23-.05.51-.22.72-.15-1.14.49-2.59.71-3.78.22l-.17.62c.53.02,1.16-.03,1.61.27.58.4-.47.64-.78.81-.08.05-.5.3-.46.37.36.16.58.48.89.7.93.65,2.29.82,3.46.61.09.11.02.11-.08.16-.42.2-1.41.21-1.88.14ZM96.15,16.29c-.57-.34-1.41-.25-2.04-.09-.26.07-1.44.54-1.56.52-.1-.02-.16-.09-.14-.18.16-1.07.32-2.14.35-3.21,0-.29.06-1.16-.1-1.37-.18-.24-.4-.14-.65-.06-1.4.45-2.98,1.26-4.37,1.61-.56.14-.97.24-1.35-.21-.77-.9-1.29-2.78-1.83-3.87-.3-.61-.3-.87-1.03-.38-.93.61-2.41,2.01-3.37,2.4-.56.23-.77.16-1.27-.1-1.15-.59-3.06-1.67-3.96-2.47-.09-.08-.41-.47-.49-.45-.55.7-.86,1.55-1.11,2.37-.12.4-.17.85-.29,1.25-.05.16-.14.48-.22.61-.02.04-.05.07-.1.07-.11,0-.92-.84-1.08-.98-.48-.41-1.12-.89-1.71-1.18-.06-.03-.29-.19-.3-.07-.01.1.32.72.38.88.65,1.7.84,3.59.33,5.33l.91-.61.54-.22c-.48.45-1.15.84-1.58,1.33-.23.26-.62.89.07.88.36,0,1.76-.83,2.21-1.02,5.52-2.32,14.5-.84,17.73,3.81.53.76.8,1.72,1.28,2.43.23.33.76.54.91.07.17-.53-.36-1.57-.47-2.13.09,0,.11.04.15.1.09.13.22.4.3.55.02.03-.03.07.08.07.15-.87.41-1.74.75-2.57.38-.93,1.14-2.16,2.17-2.69.28-.14.64-.2.86-.41ZM94.87,11.91v.04s.02-.02,0-.04ZM101.55,15.16s0-.1-.02-.08c-.05.04,0,.1.02.08ZM92.38,22v.04s.02-.02,0-.04Z" fill="#313b45" stroke="#000" stroke-miterlimit="10" stroke-width=".04"/>
          <path d="M96.15,16.29c-.23.22-.58.27-.86.41-1.03.53-1.78,1.75-2.17,2.69-.34.83-.61,1.7-.75,2.57-.11,0-.06-.04-.08-.07-.08-.15-.21-.42-.3-.55-.04-.06-.07-.09-.15-.1.11.55.64,1.6.47,2.13-.15.47-.68.27-.91-.07-.48-.71-.76-1.67-1.28-2.43-3.23-4.65-12.22-6.12-17.73-3.81-.45.19-1.85,1.01-2.21,1.02-.68.01-.29-.62-.07-.88.42-.49,1.1-.88,1.58-1.33l-.54.22-.91.61c.51-1.75.32-3.63-.33-5.33-.06-.16-.39-.79-.38-.88.01-.12.24.04.3.07.59.29,1.23.77,1.71,1.18.16.14.97.98,1.08.98.05,0,.08-.04.1-.07.08-.13.17-.46.22-.61.12-.4.17-.85.29-1.25.24-.81.56-1.66,1.11-2.37.08-.02.41.37.49.45.9.8,2.81,1.88,3.96,2.47.5.26.71.33,1.27.1.96-.39,2.44-1.79,3.37-2.4.74-.48.73-.22,1.03.38.54,1.09,1.06,2.97,1.83,3.87.38.45.79.35,1.35.21,1.39-.35,2.97-1.16,4.37-1.61.25-.08.47-.18.65.06.16.21.11,1.08.1,1.37-.03,1.08-.19,2.15-.35,3.21-.02.08.04.16.14.18.12.02,1.31-.46,1.56-.52.63-.16,1.48-.26,2.04.09Z" fill="#d00817"/>
          <path d="M92.38,22s.02.03-.01.04v-.04Z" fill="#d00817"/>
        </g>
        <g>
          <path d="M97.51,18.86c.47.07,1.46.06,1.88-.14.1-.05.17-.05.08-.16-1.16.21-2.52.03-3.46-.61-.31-.21-.53-.54-.89-.7-.04-.08.37-.33.46-.37.3-.17,1.36-.41.78-.81-.45-.31-1.07-.25-1.61-.27l.17-.62c1.19.5,2.65.28,3.78-.22-.22-.06-.5.1-.72.15-.82.19-1.66.15-2.47-.1-.11-.03-.56-.21-.57-.28.17-.63.16-1.33.31-1.96.12-.48.56-.79,1.02-1.07.08-.05.2-.06.25-.09.9-.57,1.83-1.27,2.3-2.15l-.76.79c-.63.56-1.46.98-2.38,1.05.21-.46.32-.95.4-1.44.09-.54.1-1.07-.04-1.6-.06-.03-.06.04-.08.08-.19.65-.07,1.48-.33,2.15l-.15.3c.07-1.19,0-2.43-.61-3.51-.06,0-.02.09-.02.13.04.3.13.59.17.89.16,1.19.07,2.41-.16,3.59-.33-.71-.68-1.38-1.21-2-.03-.03-.17-.22-.2-.09.49.66.8,1.4,1.03,2.16.06.21.15.46.19.67.1.57-.17,2.15-.33,2.75-.05.19-.13.37-.2.55-.46.06-.89.22-1.28.43-.09,0-.03-.18-.02-.23.19-1.12.48-3.09.23-4.19-.11-.5-.41-.61-.96-.45-1.39.4-2.86,1.1-4.26,1.56-.24.08-.82.29-1.04.21-.21-.07-.39-.51-.48-.69-.52-1.03-.83-2.14-1.33-3.16-.11-.22-.39-.79-.55-.96-.39-.41-.84,0-1.21.24-1.07.67-2.02,1.48-3.07,2.18-.12.08-.57.37-.69.37-.09,0-.33-.11-.42-.16-1.02-.47-3.29-1.76-4.08-2.45-.46-.4-.62-.92-1.17-.13-.61.87-.95,2.47-1.23,3.47-.01.05-.03.19-.12.15-.08-.26-.59-.57-.68-.77-.24-.52.69-1.97,1.03-2.45,1.38-1.92,3.57-2.48,5.9-3.24.11-.04.18-.1.33-.11-.08-.04-.26-.01-.36,0-1.14.16-3.2.91-4.22,1.4-.05.03-.11.06-.13.11-.08-.01,0-.07.02-.1.06-.09.13-.17.2-.25,5.02-6.01,13.11-8.27,20.96-4.39,4.72,2.34,5.97,4.79,5.89,9.29-.02,1.27-.27,2.59.1,3.82.14.16-.03-.25.09-.21.06.3.29.66.31.96.04.61-.33,1.1-.65,1.62.2-.08.56-.4.62-.57l.18-.52.2.98c.09,1.11-.35,3.21-1.29,4.02s-2.58,1.62-3.67.62c-.89-.81.02-1.92-.15-2.86l.25.34c.05.1.18.56.24.59.15.07.13-.16.13-.24-.02-.34-.22-.64-.42-.92l-.45-.5c.2.04.42.12.62.15ZM93.43,9.6c-.05-.04-.12,0-.1.01.05.04.12,0,.1-.01Z" fill="#006533"/>
          <path d="M101.55,15.16s-.07-.04-.02-.08c.02-.02.07.04.02.08Z" fill="#006533"/>
          <path d="M93.43,9.6s-.05.05-.1.01c-.02-.02.05-.05.1-.01Z" fill="#010100"/>
        </g>
      </g>
      <path d="M43.77,27.52c1.01-.67,1.99-1.9,2.92-2.6,2.51-1.85,5.84-2.53,8.68-3.8,4.66-2.09,7.63-4.34,12.84-5.64,3.27-.81,7.28-1.78,10.52-.64-.08,0-1.24,0-1.56,0-2.35,0-4.54.27-6.84.72-.59.48,1.4.67,1.59.69,1.01.09,3.35-.18,4.02.06.44.16.28.71.44.87s2.94,1.01,3.45,1.24c.28.13.43-.11.34.5-2.43,1.21-5.18,2.21-7.42,3.74-2.11,1.44-3.06,2.15-5.3,3.46l-1.2.12c.98-1.16,1.5-2.8,2.76-3.72.53-.39,2.62-1.44,3.3-1.74.82-.36,3.48-.46,1.92-1.88-.41-.37-3.43-.02-4.06-.09-5.64-.7-7.96,3.59-12.79,5.04-.8.24-1.53.01-2.39.49-1.53.85-2.52,3.97-4.11,5.01l-.36,1.32-2.26,2.89c.74-.25,1.45.02,2.16-.09,3.3-.54,4.03-2.83,6.54-4.24.41-.23.47-.8,1.62-.47.29,3.06-4.55,6.81-7.04,7.96-1.75.81-4.06.87-5.74,1.7-1.01.5-2.25,2.13-3.07,2.45-.59.23-1.11.05-1.81.35-1.08.46-2.98,2.96-4.07,3.85-.55.45-2.16,1.77-2.77,1.34-.94-1.22.89-2.37,1.08-3.03.1-.34-.1-.64.01-.94.45-1.14,4.09-3.65,5.27-4.35.31-.18,1.36-.31.85-.94-.24-.29-2.03.29-1.32-1.2.36-.75,1.38-.79,1.92-1.2,1.13-.86,4.48-3.92,4.97-5.11.16-.38.24-.71.19-1.13-.69-.7-5.31,3.09-6.15,3.57-2.27,1.28-5.21,1.8-7.47,2.9-1.63.79-2.72,1.05-4.5,1.45-.78.25.12-1.96.2-2.09.3-.45,2.18-1.37,2.81-1.51-.11.13-.22.73-.48.96.59.71,5.05-1.75,5.99-2.05,1-.32,2.3-.02,3.31-.89.85-1.14-.18-1.39-1.14-1.38,1.36-.68,2.88-1.11,4.16-1.96ZM45.02,27.56c1.14-.42,2.27-.58,3.48-.48.24,1.09-.79,1.88-.95,2.77-.05.3-.1.78.35.59.16-.07,2.49-2.2,2.63-2.41.55-.78.6-1.98,1.04-2.8.51-.94,1.77-1.36,1.73-2.47-2.81.97-6,2.26-8.02,4.47-.1.11-.65.07-.25.33Z" fill="#d4e5f0"/>
      <path d="M78.73,14.84c-.08,0-1.24,0-1.56,0-2.35,0-4.54.27-6.84.72-.59.48,1.4.67,1.59.69,1.01.09,3.35-.18,4.02.06.44.16.28.71.44.87s2.94,1.01,3.45,1.24c.28.13.43-.11.34.5-2.43,1.21-5.18,2.21-7.42,3.74-2.11,1.44-3.06,2.15-5.3,3.46-1.38.81-2.8,1.74-3.6,3.12l.24.12c.12.58-.23.26-.48.36-.37.73-.97,2.04-1.14,2.82-.07.33-.28.89.3.78,2.19-2.14,3.29-4.14,6-5.76,3.39-2.03,5.8-2.08,9.28-3.2,1.14-.36,2.94-1.7,3.94-1.83.44-.06,3.06.16,3.57.25.64.11,1.39.89,1.95.94.72.06,2.92.76,3.8.73,1.53-.06,4.69-1.44,5.98-1.15s4.49,3.04,5.09,3.08c1.06.06-.75-2.32-.6-2.64-3.65-2.88-3.75-2.38-7.92-3.84-.95.39-2.46.31-3.48.24-.89-.07-4.93-.7-5.13-1.6-.09-.38.25-.78.22-1.13-.01-.17-.68-.14-.49-.63-1.93-.62-4.25-1.72-6.24-1.92Z" fill="#fefefe"/>
      <path d="M74.41,39.08c.13.63-.31.49-.66.65-1.29.6-2.36,1.12-3.43,2.11-.67.62-1.61,1.3-1.44,2.28.39.39,7.14-1.74,8.31-1.89.29-.04,1.04-.18.81.33-.41.93-1.87,1.39-2.41,2.15-.28.4-.31,1.04-.53,1.27-.35.37-1.94.97-2.42,1.29-.31.21-1.93,1.34-1.6,1.64,3.49-.54,6.99-1.22,10.56-1.2-.04-.28.09-1.09-.01-1.19-.12-.12-2.83-.65-3.23-.49-.21.03-.14-.45-.12-.48.13-.16,3.26-1.82,3.67-1.98,1.07-.41,2.35-.58,3.52-1.04,1.49-.59,3.17-2.07,4.52-2.21.78-.08,2.66.11,3.47.24,2.55.41,4.97,1.93,7.62,1.38.84-.77-4.17-2.45-4.5-2.59s-.51-.51-.54-.53c-4.68-1.89-9.35-3.25-14.34-1.74-2.73.83-4.35,1.39-7.26,1.98Z" fill="#fefefe"/>
      <path d="M116.89,33.8c-1.43-.23-4.55-.48-6.11-.49-3.95-.04.79,2.13,1.84,2.68.18.1.21.36.38.44.58.27,3.79,1.56,4.13,1.22.35-.54-1.04-1.79-.12-1.68l6.12,2.4c.1-.48-.11-.64-.35-.97-.28-.38-2.15-2.3-2.29-2.39-.81-.52-2.62-1.04-3.6-1.2Z" fill="#fefefe"/>
      <path d="M42.97,46.04c.49-.18.46.47.63.49.99.11,1.11-.94,1.8-1.53,3.17-2.71,6.84-2.15,10.13-4.04,1.47-.84,2.66-2.11,3.67-3.16.41-.42.81-1.28.45-1.84-.98.47-1.24,1.98-2.52,1.92-.03.07.03.17,0,.24-.02.05.28.62-.6.72l-.12-.24c-2.69,1.88-4.31,1.73-7.16,2.56-2.55.75-4.47,3.1-6.28,4.88Z" fill="#fefefe"/>
      <path d="M11.05,51.56c2.33-.04,6.95.88,8.96-.24.26-.14.23-.4.15-.59-.28-.68-2.67-.93-2.83-1.13-.49-.6.52-1.47-2.09-1.16-.85.1-5.09,2.27-4.19,3.12Z" fill="#d4e5f0"/>
      <path d="M39.61,29.48c-1.22.02-6.93,2.42-7.68,3.36-.11.13-.22.73-.48.96.59.71,5.05-1.75,5.99-2.05,1-.32,2.3-.02,3.31-.89.85-1.14-.18-1.39-1.14-1.38Z" fill="#fefefe"/>
      <path d="M84.97,16.76c-.19.49.48.46.49.63.02.35-.31.74-.22,1.13.2.9,4.24,1.54,5.13,1.6,1.02.08,2.53.15,3.48-.24-2.99-1.05-5.86-2.15-8.88-3.12Z" fill="#d4e5f0"/>
      <path d="M139.93,46.28c-.82-.21-5.32-.88-5.76-.48-.08.46.29.72.65.91.74.38,3.46,1.42,4.25,1.51.35.04,2.44.07,2.53-.01.53-.5-.94-.95-.72-1.44-.26-.1-.38-.33-.96-.48Z" fill="#fefefe"/>
      <path d="M112.81,50.6s-.23.36-.65.42c-.69.1-3.16.17-3.43.54-.5.68,2.09.95,2.52.96.51,0,1.04-.26,1.67-.25,1.34.02,2.64.13,3.97.25l-.24-1.2c-.13-.04-.26-.18-.48-.24l-.48-.24c-.88-.2-2-.4-2.88-.24Z" fill="#fefefe"/>
      <path d="M57.85,51.8c.12,1.07-1.49.47-1.68.48-.16,0-.32-.01-.48,0l-1.2,1.44c1.37.01,2.57-.65,3.95-.73,1.82-.11,3,.75,4.75.43.88-.16,1.81-1.01.74-1.34-.89-.28-3.83,0-5.02-.03-.31,0-.55-.25-.58-.25-.16,0-.32,0-.48,0Z" fill="#fefefe"/>
      <path d="M34.81,51.08c-.45.05-.63.16-.96.24.18.74-1.85.93-1.2,1.68.11.13,2.6-.78,3.06-.9.42-.11,1.63.08,1.74-.42.22-1.03-1.87-.41-2.29-.39-.18,0-.32-.21-.35-.21Z" fill="#fefefe"/>
      <path d="M56.17,52.28c.19-.01,1.8.59,1.68-.48-.58,0-1.26.05-1.68.48Z" fill="#d4e5f0"/>
      <path d="M56.41,38.6l.12.24c.88-.1.57-.67.6-.72-.47-.09-.56.37-.72.48Z" fill="#d4e5f0"/>
      <rect x="43.45" y="51.8" width=".72" height=".48" fill="#d4e5f0"/>
      <path d="M115.69,50.84l.48.24c-.09-.03-.24-.19-.48-.24Z" fill="#d4e5f0"/>
      <path d="M118.57,41.48c-1.63.31-3.34.26-4.87.53-1.09.2-2.13,1.27-3.29,1.39,1.14,2.85,4.08.75,5.85.74,1.96,0,4.98,1.06,7,1.4,2.64.45-.12-1.81-.73-2.63l-2.04-1.2c-.16,0-.32,0-.48,0-.07,0-.39.37-.81.26-.24-.06-.12-.47-.15-.5-.02-.02-.38-.02-.48,0Z" fill="#fefefe"/>
      <path d="M120.49,41.72c2.21.03,4.59,2.71,6.61,3.11.24.05.65.15.58-.23-1.79-.59-3.3-2-5.03-2.77-2.77-1.23-6.61-1.46-9.53-.63-.4.12-.67-.18-.55.51,1.9-.4,4.08-.83,6-.24.1-.02.46-.02.48,0l.96.24c.16,0,.32,0,.48,0Z" fill="#9dbdd8"/>
      <path d="M97.93,38.84c-.12.68.17.39.53.54.9.37,1.88.88,2.83.9l-1.92-1.07-1.43-.36Z" fill="#9dbdd8"/>
      <path d="M45.27,27.23c-.1.11-.65.07-.25.33,1.14-.42,2.27-.58,3.48-.48.24,1.09-.79,1.88-.95,2.77-.05.3-.1.78.35.59.16-.07,2.49-2.2,2.63-2.41.55-.78.6-1.98,1.04-2.8.51-.94,1.77-1.36,1.73-2.47-2.81.97-6,2.26-8.02,4.47Z" fill="#fefefe"/>
      <path d="M119.05,41.48s-.09.44.15.5c.43.11.75-.25.81-.26l-.96-.24Z" fill="#d4e5f0"/>
    </g>
  </g>
</svg>