<?xml version="1.0" encoding="UTF-8"?>
<svg xmlns="http://www.w3.org/2000/svg" version="1.1" viewBox="0 0 200 50">
  <defs>
    <style>
      .st0 {
        fill: #fff;
      }

      .st1 {
        isolation: isolate;
      }

      .st2 {
        fill: none;
        stroke: #1d1d1b;
        stroke-width: 2px;
      }

      .st3 {
        mix-blend-mode: multiply;
        opacity: .8;
      }
    </style>
  </defs>
  <g class="st1">
    <g id="Calque_1">
      <g>
        <path class="st2" d="M14.9,10h149c1.3,0,2.1,1.8,1.4,3.2l-6.1,11.8,6.1,11.8c.7,1.4,0,3.2-1.4,3.2H14.9V10Z"/>
        <g>
          <g class="st3">
            <path d="M21.9,14h149c1.3,0,2.1,1.8,1.4,3.2l-6.1,11.8,6.1,11.8c.7,1.4,0,3.2-1.4,3.2H21.9V14Z"/>
          </g>
          <path class="st0" d="M14.9,10h149c1.3,0,2.1,1.8,1.4,3.2l-6.1,11.8,6.1,11.8c.7,1.4,0,3.2-1.4,3.2H14.9V10Z"/>
        </g>
      </g>
    </g>
  </g>
</svg>